# xmcd CD database file
# Copyright (C) 1995-1998 Ti Kan
#
# Track frame offsets:
#	150
#	15030
#	27887
#	39205
#	51390
#	61642
#	71002
#	80297
#	91510
#	104855
#	121435
#	136050
#	151225
#	166909
#	180042
#	207817
#	221262
#	230245
#	246675
#	267695
#	288315
#
# Disc length: 3978 seconds
#
# Revision: 1
# Processed by: cddbd v1.5PL3 Copyright (c) Steve Scherf et al.
# Submitted via: CDex 1.40Beta3
#
DISCID=170f8815
DTITLE=Carlos Mais - Volume 3 - Ao vivo
DYEAR=2003
DGENRE=Blues
TTITLE0=Abertura
TTITLE1=Depressa amor
TTITLE2=Eu sempre te amei
TTITLE3=Dá-me dá-me
TTITLE4=Minha princesa
TTITLE5=Ficar na solidão
TTITLE6=Loucura demais
TTITLE7=Me diz porque me deixou
TTITLE8=Pra rebolar
TTITLE9=Só vai dar eu e você
TTITLE10=Amor demais
TTITLE11=Nem uma noite a mais
TTITLE12=Linda demais
TTITLE13=Manhãs de setembro
TTITLE14=Coração sonhador
TTITLE15=Telefone
TTITLE16=Whisky a gogo
TTITLE17=Lambadão do avião
TTITLE18=Camisinha
TTITLE19=Mulher de fases
TTITLE20=Depressa amor
EXTD=YEAR: 2003 ID3G:   0
EXTT0=
EXTT1=
EXTT2=
EXTT3=
EXTT4=
EXTT5=
EXTT6=
EXTT7=
EXTT8=
EXTT9=
EXTT10=
EXTT11=
EXTT12=
EXTT13=
EXTT14=
EXTT15=
EXTT16=
EXTT17=
EXTT18=
EXTT19=
EXTT20=
PLAYORDER=
